<!DOCTYPE svg PUBLIC "-//W3C//DTD SVG 1.1//EN" "http://www.w3.org/Graphics/SVG/1.1/DTD/svg11.dtd">
<!-- Uploaded to: SVG Repo, www.svgrepo.com, Transformed by: SVG Repo Mixer Tools -->
<svg height="800px" width="800px" version="1.1" id="Layer_1" xmlns="http://www.w3.org/2000/svg" xmlns:xlink="http://www.w3.org/1999/xlink" viewBox="0 0 508 508" xml:space="preserve" fill="#ffffff">
<g id="SVGRepo_bgCarrier" stroke-width="0"/>
<g id="SVGRepo_tracerCarrier" stroke-linecap="round" stroke-linejoin="round"/>
<g id="SVGRepo_iconCarrier"> <circle style="fill:#0B0531;" cx="254" cy="254" r="254"/> <polygon style="fill:#F1543F;" points="285.2,374 254,439.2 222.8,374 240,286 268,286 "/> <polygon style="fill:#FF7058;" points="268,286 240,286 236.8,264.4 271.2,264.4 "/> <circle style="fill:#000000;" cx="254" cy="140.4" r="105.6"/> <circle style="fill:#FFFFFF;" cx="254" cy="140.4" r="105.6"/> <g> <path style="fill:#7815AE;" d="M254,54c-47.6,0-86,38.4-86,86s38.4,86,86,86s86-38.4,86-86C340,92.8,301.6,54,254,54z M254,216.4 c-42,0-76-34-76-76s34-76,76-76s76,34,76,76S296,216.4,254,216.4z"/> <path style="fill:#7815AE;" d="M254,132.4c-6.4,0-11.6-5.2-11.6-11.6c0-6,4.8-11.2,10.8-11.6c0.4,0,0.4,0,0.8,0c0.4,0,0.4,0,0.8,0 c2.8,0.4,5.6,1.6,7.6,3.6c2.8,3.2,7.6,3.2,10.8,0.4c3.2-2.8,3.2-7.6,0.4-10.8c-3.2-3.6-7.2-6-12-7.2V90c0-4.4-3.6-7.6-7.6-7.6 s-7.6,3.6-7.6,7.6v5.2c-11.2,3.2-19.2,13.6-19.2,25.6c0,14.8,12,26.8,26.8,26.8c6.4,0,11.6,5.2,11.6,11.6c0,6-4.8,11.2-10.8,11.6 c-0.4,0-0.4,0-0.8,0s-0.4,0-0.8,0c-2.8-0.4-5.6-1.6-7.6-3.6c-2.8-3.2-7.6-3.2-10.8-0.4s-3.2,7.6-0.4,10.8c3.2,3.6,7.2,6,12,7.2v5.2 c0,4.4,3.6,7.6,7.6,7.6s7.6-3.6,7.6-7.6v-5.2c11.2-3.2,19.2-13.6,19.2-25.6C280.8,144.8,268.8,132.4,254,132.4z"/> </g> <path style="fill:#3D3473;" d="M254,508c94.4,0,176.8-51.6,220.4-128l-2.8-10.4c-7.6-27.2-25.6-50.4-50.4-64.8L340.8,258L254,439.2 L167.2,258l-80.4,46.8C62,318.8,44,342,36.4,369.6L33.6,380C77.2,456.4,159.6,508,254,508z"/> </g>
</svg>